<svg width="114" height="35" viewBox="0 0 114 35" fill="none" xmlns="http://www.w3.org/2000/svg">
<g filter="url(#filter0_d_1_3)">
<mask id="path-1-outside-1_1_3" maskUnits="userSpaceOnUse" x="4" y="0" width="106" height="27" fill="black">
<rect fill="white" x="4" width="106" height="27"/>
<path d="M16.968 25.32C14.6427 25.32 12.584 25.2133 10.792 25C9 24.7867 7.70933 24.5733 6.92 24.36V23.4L6.28 19.336C6.68533 19.6773 7.35733 20.04 8.296 20.424C9.23467 20.808 10.44 21.1387 11.912 21.416C13.384 21.672 15.0907 21.8 17.032 21.8C18.2267 21.8 19.144 21.7253 19.784 21.576C20.424 21.4053 20.8613 21.1707 21.096 20.872C21.3307 20.5733 21.448 20.2213 21.448 19.816C21.448 19.304 21.2773 18.9093 20.936 18.632C20.5947 18.3333 19.976 18.088 19.08 17.896C18.2053 17.704 16.9573 17.5013 15.336 17.288C13.3947 17.032 11.7733 16.68 10.472 16.232C9.17067 15.784 8.2 15.1547 7.56 14.344C6.92 13.512 6.6 12.4133 6.6 11.048C6.6 9.93867 6.888 8.968 7.464 8.136C8.04 7.304 8.968 6.65333 10.248 6.184C11.528 5.71467 13.224 5.48 15.336 5.48C17.5547 5.48 19.4533 5.58667 21.032 5.8C22.6107 6.01333 23.6987 6.22667 24.296 6.44V7.4L25.256 10.92C24.7227 10.6427 23.9547 10.3547 22.952 10.056C21.9493 9.75733 20.7867 9.512 19.464 9.32C18.1413 9.10667 16.712 9 15.176 9C14.216 9 13.4693 9.08533 12.936 9.256C12.4027 9.40533 12.0187 9.62933 11.784 9.928C11.5707 10.2053 11.464 10.5573 11.464 10.984C11.464 11.496 11.656 11.912 12.04 12.232C12.4453 12.5307 13.096 12.776 13.992 12.968C14.888 13.16 16.0933 13.3413 17.608 13.512C19.9333 13.768 21.7253 14.152 22.984 14.664C24.2427 15.176 25.1067 15.8373 25.576 16.648C26.0667 17.4373 26.312 18.3973 26.312 19.528C26.312 20.5093 26.1307 21.3733 25.768 22.12C25.4053 22.8453 24.84 23.4427 24.072 23.912C23.3253 24.3813 22.3547 24.7333 21.16 24.968C19.9867 25.2027 18.5893 25.32 16.968 25.32ZM29.1938 25C29.3431 25 29.4924 24.8507 29.6418 24.552C29.7911 24.2533 29.8658 23.7627 29.8658 23.08V4.84C29.8658 4.15733 29.7911 3.66666 29.6418 3.368C29.5138 3.06933 29.3751 2.92 29.2258 2.92C30.6338 2.92 31.7751 2.856 32.6498 2.728C33.5458 2.57867 34.1324 2.42933 34.4098 2.28V23.08C34.4098 23.7627 34.4738 24.2533 34.6018 24.552C34.7511 24.8507 34.9004 25 35.0498 25H29.1938ZM38.0643 25C38.2136 25 38.3629 24.8507 38.5123 24.552C38.6616 24.2533 38.7363 23.7627 38.7363 23.08V11.944C38.7363 11.2613 38.6616 10.7707 38.5123 10.472C38.3843 10.1733 38.2456 10.024 38.0963 10.024H43.2803V23.08C43.2803 23.7627 43.3443 24.2533 43.4723 24.552C43.6216 24.8507 43.7709 25 43.9203 25H38.0643ZM40.6562 7.592C39.8669 7.592 39.2376 7.37867 38.7682 6.952C38.2989 6.52533 38.0643 5.93867 38.0643 5.192C38.0643 4.44533 38.2883 3.85867 38.7363 3.432C39.2056 3.00533 39.8456 2.792 40.6562 2.792C41.4669 2.792 42.0963 3.00533 42.5443 3.432C43.0136 3.85867 43.2483 4.44533 43.2483 5.192C43.2483 5.93867 43.0136 6.52533 42.5443 6.952C42.0963 7.37867 41.4669 7.592 40.6562 7.592ZM53.1183 25.32C51.2196 25.32 49.7263 24.9787 48.6383 24.296C47.5716 23.6133 46.8143 22.6853 46.3663 21.512C45.9396 20.3387 45.7263 19.016 45.7263 17.544C45.7263 16.0507 45.9396 14.7173 46.3663 13.544C46.8143 12.3707 47.5716 11.4427 48.6383 10.76C49.7263 10.056 51.2196 9.704 53.1183 9.704C53.7583 9.704 54.3343 9.75733 54.8463 9.864C55.3796 9.97067 55.8489 10.12 56.2543 10.312C56.6809 10.4827 57.0543 10.7067 57.3743 10.984L57.4383 10.952L57.3743 10.344V4.84C57.3743 4.15733 57.2996 3.67733 57.1503 3.4C57.0223 3.10133 56.8836 2.94133 56.7343 2.92H61.9183V23.08C61.9183 23.7627 61.9823 24.2533 62.1103 24.552C62.2596 24.8507 62.4089 25 62.5583 25H57.3743V24.584L57.4703 23.976L57.3743 23.944C57.0543 24.2213 56.6809 24.4667 56.2543 24.68C55.8276 24.872 55.3476 25.0213 54.8143 25.128C54.3023 25.256 53.7369 25.32 53.1183 25.32ZM53.6623 22.088C54.3663 22.088 54.9529 21.9813 55.4223 21.768C55.9129 21.5547 56.2969 21.256 56.5743 20.872C56.8729 20.4667 57.0756 19.9867 57.1823 19.432C57.3103 18.856 57.3743 18.2267 57.3743 17.544C57.3743 16.8613 57.3103 16.2427 57.1823 15.688C57.0543 15.112 56.8516 14.6213 56.5743 14.216C56.2969 13.7893 55.9129 13.4693 55.4223 13.256C54.9529 13.0213 54.3663 12.904 53.6623 12.904C52.6383 12.904 51.8063 13.256 51.1663 13.96C50.5476 14.664 50.2383 15.8693 50.2383 17.576C50.2383 18.7067 50.3769 19.6027 50.6543 20.264C50.9316 20.9253 51.3263 21.3947 51.8383 21.672C52.3503 21.9493 52.9583 22.088 53.6623 22.088ZM73.8365 25.32C72.1512 25.32 70.7432 25.1493 69.6125 24.808C68.5032 24.4453 67.6178 23.9333 66.9565 23.272C66.2952 22.5893 65.8258 21.768 65.5485 20.808C65.2712 19.848 65.1325 18.76 65.1325 17.544C65.1325 15.1333 65.8045 13.224 67.1485 11.816C68.4925 10.408 70.5512 9.704 73.3245 9.704C74.9458 9.704 76.2578 9.928 77.2605 10.376C78.2845 10.824 79.0632 11.4213 79.5965 12.168C80.1298 12.9147 80.4925 13.7467 80.6845 14.664C80.8978 15.56 81.0045 16.4667 81.0045 17.384V18.888C81.0045 18.824 80.7058 18.76 80.1085 18.696C79.5325 18.6107 78.5512 18.568 77.1645 18.568H69.7405C69.7405 19.7413 70.0925 20.6267 70.7965 21.224C71.5218 21.8 72.6952 22.088 74.3165 22.088C75.6818 22.088 76.8978 21.928 77.9645 21.608C79.0525 21.2667 79.8418 20.9467 80.3325 20.648V21.608L80.6525 24.04C80.2472 24.3173 79.4685 24.6053 78.3165 24.904C77.1645 25.1813 75.6712 25.32 73.8365 25.32ZM70.9245 15.816H76.4605C76.4605 15.3467 76.3538 14.888 76.1405 14.44C75.9485 13.992 75.6285 13.6293 75.1805 13.352C74.7325 13.0533 74.1138 12.904 73.3245 12.904C72.5352 12.904 71.8952 13.0213 71.4045 13.256C70.9352 13.4907 70.5832 13.7787 70.3485 14.12C70.1352 14.4613 70.0285 14.8133 70.0285 15.176C70.0285 15.3893 70.0925 15.5493 70.2205 15.656C70.3485 15.7627 70.5832 15.816 70.9245 15.816ZM83.8975 25C84.0468 25 84.1855 24.8613 84.3135 24.584C84.4628 24.2853 84.5375 23.784 84.5375 23.08V7.72C84.5375 7.03733 84.4628 6.54667 84.3135 6.248C84.1855 5.94933 84.0468 5.8 83.8975 5.8H90.0735C89.9242 5.8 89.7748 5.94933 89.6255 6.248C89.4762 6.52533 89.4015 7.02667 89.4015 7.752V23.08C89.4015 23.7627 89.4762 24.2533 89.6255 24.552C89.7748 24.8507 89.9242 25 90.0735 25H83.8975ZM93.0805 25C93.2298 25 93.3685 24.8507 93.4965 24.552C93.6458 24.2533 93.7205 23.7627 93.7205 23.08V12.264C93.7205 11.5813 93.6458 11.1013 93.4965 10.824C93.3685 10.5253 93.2298 10.3653 93.0805 10.344C94.0192 10.344 94.9792 10.28 95.9605 10.152C96.9418 10.0027 97.7098 9.85333 98.2645 9.704V11.656L98.2005 12.072L98.2645 12.136C98.3285 11.9867 98.5312 11.72 98.8725 11.336C99.2138 10.952 99.7045 10.5893 100.345 10.248C100.985 9.88533 101.774 9.704 102.713 9.704C104.697 9.704 106.211 10.2693 107.257 11.4C108.323 12.5307 108.857 14.3013 108.857 16.712V23.08C108.857 23.7627 108.921 24.2533 109.049 24.552C109.198 24.8507 109.347 25 109.497 25H103.673C103.822 25 103.961 24.8507 104.089 24.552C104.238 24.2533 104.313 23.7627 104.313 23.08V16.808C104.313 15.8053 104.206 15.0267 103.993 14.472C103.779 13.896 103.481 13.4907 103.097 13.256C102.734 13.0213 102.307 12.904 101.817 12.904C101.219 12.904 100.643 13.0533 100.089 13.352C99.5552 13.6293 99.1178 14.0773 98.7765 14.696C98.4352 15.2933 98.2645 16.0933 98.2645 17.096V23.08C98.2645 23.7627 98.3285 24.2533 98.4565 24.552C98.6058 24.8507 98.7552 25 98.9045 25H93.0805Z"/>
</mask>
<path d="M16.968 25.32C14.6427 25.32 12.584 25.2133 10.792 25C9 24.7867 7.70933 24.5733 6.92 24.36V23.4L6.28 19.336C6.68533 19.6773 7.35733 20.04 8.296 20.424C9.23467 20.808 10.44 21.1387 11.912 21.416C13.384 21.672 15.0907 21.8 17.032 21.8C18.2267 21.8 19.144 21.7253 19.784 21.576C20.424 21.4053 20.8613 21.1707 21.096 20.872C21.3307 20.5733 21.448 20.2213 21.448 19.816C21.448 19.304 21.2773 18.9093 20.936 18.632C20.5947 18.3333 19.976 18.088 19.08 17.896C18.2053 17.704 16.9573 17.5013 15.336 17.288C13.3947 17.032 11.7733 16.68 10.472 16.232C9.17067 15.784 8.2 15.1547 7.56 14.344C6.92 13.512 6.6 12.4133 6.6 11.048C6.6 9.93867 6.888 8.968 7.464 8.136C8.04 7.304 8.968 6.65333 10.248 6.184C11.528 5.71467 13.224 5.48 15.336 5.48C17.5547 5.48 19.4533 5.58667 21.032 5.8C22.6107 6.01333 23.6987 6.22667 24.296 6.44V7.4L25.256 10.92C24.7227 10.6427 23.9547 10.3547 22.952 10.056C21.9493 9.75733 20.7867 9.512 19.464 9.32C18.1413 9.10667 16.712 9 15.176 9C14.216 9 13.4693 9.08533 12.936 9.256C12.4027 9.40533 12.0187 9.62933 11.784 9.928C11.5707 10.2053 11.464 10.5573 11.464 10.984C11.464 11.496 11.656 11.912 12.04 12.232C12.4453 12.5307 13.096 12.776 13.992 12.968C14.888 13.16 16.0933 13.3413 17.608 13.512C19.9333 13.768 21.7253 14.152 22.984 14.664C24.2427 15.176 25.1067 15.8373 25.576 16.648C26.0667 17.4373 26.312 18.3973 26.312 19.528C26.312 20.5093 26.1307 21.3733 25.768 22.12C25.4053 22.8453 24.84 23.4427 24.072 23.912C23.3253 24.3813 22.3547 24.7333 21.16 24.968C19.9867 25.2027 18.5893 25.32 16.968 25.32ZM29.1938 25C29.3431 25 29.4924 24.8507 29.6418 24.552C29.7911 24.2533 29.8658 23.7627 29.8658 23.08V4.84C29.8658 4.15733 29.7911 3.66666 29.6418 3.368C29.5138 3.06933 29.3751 2.92 29.2258 2.92C30.6338 2.92 31.7751 2.856 32.6498 2.728C33.5458 2.57867 34.1324 2.42933 34.4098 2.28V23.08C34.4098 23.7627 34.4738 24.2533 34.6018 24.552C34.7511 24.8507 34.9004 25 35.0498 25H29.1938ZM38.0643 25C38.2136 25 38.3629 24.8507 38.5123 24.552C38.6616 24.2533 38.7363 23.7627 38.7363 23.08V11.944C38.7363 11.2613 38.6616 10.7707 38.5123 10.472C38.3843 10.1733 38.2456 10.024 38.0963 10.024H43.2803V23.08C43.2803 23.7627 43.3443 24.2533 43.4723 24.552C43.6216 24.8507 43.7709 25 43.9203 25H38.0643ZM40.6562 7.592C39.8669 7.592 39.2376 7.37867 38.7682 6.952C38.2989 6.52533 38.0643 5.93867 38.0643 5.192C38.0643 4.44533 38.2883 3.85867 38.7363 3.432C39.2056 3.00533 39.8456 2.792 40.6562 2.792C41.4669 2.792 42.0963 3.00533 42.5443 3.432C43.0136 3.85867 43.2483 4.44533 43.2483 5.192C43.2483 5.93867 43.0136 6.52533 42.5443 6.952C42.0963 7.37867 41.4669 7.592 40.6562 7.592ZM53.1183 25.32C51.2196 25.32 49.7263 24.9787 48.6383 24.296C47.5716 23.6133 46.8143 22.6853 46.3663 21.512C45.9396 20.3387 45.7263 19.016 45.7263 17.544C45.7263 16.0507 45.9396 14.7173 46.3663 13.544C46.8143 12.3707 47.5716 11.4427 48.6383 10.76C49.7263 10.056 51.2196 9.704 53.1183 9.704C53.7583 9.704 54.3343 9.75733 54.8463 9.864C55.3796 9.97067 55.8489 10.12 56.2543 10.312C56.6809 10.4827 57.0543 10.7067 57.3743 10.984L57.4383 10.952L57.3743 10.344V4.84C57.3743 4.15733 57.2996 3.67733 57.1503 3.4C57.0223 3.10133 56.8836 2.94133 56.7343 2.92H61.9183V23.08C61.9183 23.7627 61.9823 24.2533 62.1103 24.552C62.2596 24.8507 62.4089 25 62.5583 25H57.3743V24.584L57.4703 23.976L57.3743 23.944C57.0543 24.2213 56.6809 24.4667 56.2543 24.68C55.8276 24.872 55.3476 25.0213 54.8143 25.128C54.3023 25.256 53.7369 25.32 53.1183 25.32ZM53.6623 22.088C54.3663 22.088 54.9529 21.9813 55.4223 21.768C55.9129 21.5547 56.2969 21.256 56.5743 20.872C56.8729 20.4667 57.0756 19.9867 57.1823 19.432C57.3103 18.856 57.3743 18.2267 57.3743 17.544C57.3743 16.8613 57.3103 16.2427 57.1823 15.688C57.0543 15.112 56.8516 14.6213 56.5743 14.216C56.2969 13.7893 55.9129 13.4693 55.4223 13.256C54.9529 13.0213 54.3663 12.904 53.6623 12.904C52.6383 12.904 51.8063 13.256 51.1663 13.96C50.5476 14.664 50.2383 15.8693 50.2383 17.576C50.2383 18.7067 50.3769 19.6027 50.6543 20.264C50.9316 20.9253 51.3263 21.3947 51.8383 21.672C52.3503 21.9493 52.9583 22.088 53.6623 22.088ZM73.8365 25.32C72.1512 25.32 70.7432 25.1493 69.6125 24.808C68.5032 24.4453 67.6178 23.9333 66.9565 23.272C66.2952 22.5893 65.8258 21.768 65.5485 20.808C65.2712 19.848 65.1325 18.76 65.1325 17.544C65.1325 15.1333 65.8045 13.224 67.1485 11.816C68.4925 10.408 70.5512 9.704 73.3245 9.704C74.9458 9.704 76.2578 9.928 77.2605 10.376C78.2845 10.824 79.0632 11.4213 79.5965 12.168C80.1298 12.9147 80.4925 13.7467 80.6845 14.664C80.8978 15.56 81.0045 16.4667 81.0045 17.384V18.888C81.0045 18.824 80.7058 18.76 80.1085 18.696C79.5325 18.6107 78.5512 18.568 77.1645 18.568H69.7405C69.7405 19.7413 70.0925 20.6267 70.7965 21.224C71.5218 21.8 72.6952 22.088 74.3165 22.088C75.6818 22.088 76.8978 21.928 77.9645 21.608C79.0525 21.2667 79.8418 20.9467 80.3325 20.648V21.608L80.6525 24.04C80.2472 24.3173 79.4685 24.6053 78.3165 24.904C77.1645 25.1813 75.6712 25.32 73.8365 25.32ZM70.9245 15.816H76.4605C76.4605 15.3467 76.3538 14.888 76.1405 14.44C75.9485 13.992 75.6285 13.6293 75.1805 13.352C74.7325 13.0533 74.1138 12.904 73.3245 12.904C72.5352 12.904 71.8952 13.0213 71.4045 13.256C70.9352 13.4907 70.5832 13.7787 70.3485 14.12C70.1352 14.4613 70.0285 14.8133 70.0285 15.176C70.0285 15.3893 70.0925 15.5493 70.2205 15.656C70.3485 15.7627 70.5832 15.816 70.9245 15.816ZM83.8975 25C84.0468 25 84.1855 24.8613 84.3135 24.584C84.4628 24.2853 84.5375 23.784 84.5375 23.08V7.72C84.5375 7.03733 84.4628 6.54667 84.3135 6.248C84.1855 5.94933 84.0468 5.8 83.8975 5.8H90.0735C89.9242 5.8 89.7748 5.94933 89.6255 6.248C89.4762 6.52533 89.4015 7.02667 89.4015 7.752V23.08C89.4015 23.7627 89.4762 24.2533 89.6255 24.552C89.7748 24.8507 89.9242 25 90.0735 25H83.8975ZM93.0805 25C93.2298 25 93.3685 24.8507 93.4965 24.552C93.6458 24.2533 93.7205 23.7627 93.7205 23.08V12.264C93.7205 11.5813 93.6458 11.1013 93.4965 10.824C93.3685 10.5253 93.2298 10.3653 93.0805 10.344C94.0192 10.344 94.9792 10.28 95.9605 10.152C96.9418 10.0027 97.7098 9.85333 98.2645 9.704V11.656L98.2005 12.072L98.2645 12.136C98.3285 11.9867 98.5312 11.72 98.8725 11.336C99.2138 10.952 99.7045 10.5893 100.345 10.248C100.985 9.88533 101.774 9.704 102.713 9.704C104.697 9.704 106.211 10.2693 107.257 11.4C108.323 12.5307 108.857 14.3013 108.857 16.712V23.08C108.857 23.7627 108.921 24.2533 109.049 24.552C109.198 24.8507 109.347 25 109.497 25H103.673C103.822 25 103.961 24.8507 104.089 24.552C104.238 24.2533 104.313 23.7627 104.313 23.08V16.808C104.313 15.8053 104.206 15.0267 103.993 14.472C103.779 13.896 103.481 13.4907 103.097 13.256C102.734 13.0213 102.307 12.904 101.817 12.904C101.219 12.904 100.643 13.0533 100.089 13.352C99.5552 13.6293 99.1178 14.0773 98.7765 14.696C98.4352 15.2933 98.2645 16.0933 98.2645 17.096V23.08C98.2645 23.7627 98.3285 24.2533 98.4565 24.552C98.6058 24.8507 98.7552 25 98.9045 25H93.0805Z" fill="white"/>
<path d="M6.92 24.36H5.92V25.1256L6.65909 25.3254L6.92 24.36ZM6.92 23.4H7.92V23.3217L7.90783 23.2444L6.92 23.4ZM6.28 19.336L6.92414 18.5711L4.87554 16.846L5.29217 19.4916L6.28 19.336ZM8.296 20.424L8.67463 19.4985L8.67463 19.4985L8.296 20.424ZM11.912 21.416L11.7268 22.3988L11.7407 22.4012L11.912 21.416ZM19.784 21.576L20.0112 22.5498L20.0265 22.5463L20.0417 22.5422L19.784 21.576ZM21.096 20.872L21.8823 21.4898L21.8823 21.4898L21.096 20.872ZM20.936 18.632L20.2775 19.3846L20.2912 19.3966L20.3054 19.4081L20.936 18.632ZM19.08 17.896L18.8656 18.8728L18.8705 18.8738L19.08 17.896ZM15.336 17.288L15.2053 18.2794L15.2055 18.2795L15.336 17.288ZM10.472 16.232L10.1465 17.1775L10.1465 17.1775L10.472 16.232ZM7.56 14.344L6.76731 14.9538L6.77512 14.9636L7.56 14.344ZM7.464 8.136L8.28619 8.70521L8.28619 8.70521L7.464 8.136ZM10.248 6.184L10.5923 7.12288L10.5923 7.12288L10.248 6.184ZM21.032 5.8L21.1659 4.80901L21.1659 4.80901L21.032 5.8ZM24.296 6.44H25.296V5.73528L24.6323 5.49826L24.296 6.44ZM24.296 7.4H23.296V7.53392L23.3312 7.66312L24.296 7.4ZM25.256 10.92L24.7946 11.8072L26.822 12.8614L26.2208 10.6569L25.256 10.92ZM22.952 10.056L22.6665 11.0144L22.6665 11.0144L22.952 10.056ZM19.464 9.32L19.3048 10.3072L19.3125 10.3085L19.3203 10.3096L19.464 9.32ZM12.936 9.256L13.2056 10.219L13.2233 10.214L13.2408 10.2084L12.936 9.256ZM11.784 9.928L10.9976 9.31015L10.9914 9.31829L11.784 9.928ZM12.04 12.232L11.3998 13.0002L11.4228 13.0193L11.4468 13.0371L12.04 12.232ZM13.992 12.968L14.2015 11.9902L14.2015 11.9902L13.992 12.968ZM17.608 13.512L17.496 14.5057L17.4986 14.506L17.608 13.512ZM25.576 16.648L24.7106 17.149L24.7184 17.1626L24.7267 17.1759L25.576 16.648ZM25.768 22.12L26.6625 22.5672L26.6675 22.5569L25.768 22.12ZM24.072 23.912L23.5505 23.0587L23.5398 23.0654L24.072 23.912ZM21.16 24.968L20.9673 23.9867L20.9639 23.9874L21.16 24.968ZM16.968 24.32C14.6716 24.32 12.6537 24.2146 10.9102 24.007L10.6738 25.993C12.5143 26.2121 14.6138 26.32 16.968 26.32V24.32ZM10.9102 24.007C9.12314 23.7943 7.89469 23.5875 7.18091 23.3946L6.65909 25.3254C7.52398 25.5591 8.87686 25.7791 10.6738 25.993L10.9102 24.007ZM7.92 24.36V23.4H5.92V24.36H7.92ZM7.90783 23.2444L7.26783 19.1804L5.29217 19.4916L5.93217 23.5556L7.90783 23.2444ZM5.63586 20.1009C6.16363 20.5453 6.95347 20.9552 7.91737 21.3495L8.67463 19.4985C7.7612 19.1248 7.20703 18.8093 6.92414 18.5711L5.63586 20.1009ZM7.91737 21.3495C8.94032 21.768 10.2168 22.1142 11.7269 22.3987L12.0971 20.4333C10.6632 20.1631 9.52901 19.848 8.67463 19.4985L7.91737 21.3495ZM11.7407 22.4012C13.2831 22.6695 15.0492 22.8 17.032 22.8V20.8C15.1321 20.8 13.4849 20.6745 12.0833 20.4308L11.7407 22.4012ZM17.032 22.8C18.2518 22.8 19.2594 22.7253 20.0112 22.5498L19.5568 20.6022C19.0286 20.7254 18.2015 20.8 17.032 20.8V22.8ZM20.0417 22.5422C20.752 22.3528 21.4462 22.0449 21.8823 21.4898L20.3097 20.2542C20.2765 20.2964 20.096 20.4579 19.5263 20.6098L20.0417 22.5422ZM21.8823 21.4898C22.265 21.0027 22.448 20.4293 22.448 19.816H20.448C20.448 20.0134 20.3963 20.144 20.3097 20.2542L21.8823 21.4898ZM22.448 19.816C22.448 19.0582 22.1814 18.3554 21.5666 17.8559L20.3054 19.4081C20.3732 19.4632 20.448 19.5498 20.448 19.816H22.448ZM21.5945 17.8794C21.0499 17.4029 20.2145 17.1164 19.2895 16.9182L18.8705 18.8738C19.7375 19.0596 20.1395 19.2638 20.2775 19.3846L21.5945 17.8794ZM19.2944 16.9193C18.3781 16.7181 17.0971 16.5111 15.4665 16.2965L15.2055 18.2795C16.8176 18.4916 18.0326 18.6899 18.8656 18.8727L19.2944 16.9193ZM15.4667 16.2966C13.5664 16.046 12.0153 15.7057 10.7975 15.2865L10.1465 17.1775C11.5313 17.6543 13.223 18.018 15.2053 18.2794L15.4667 16.2966ZM10.7975 15.2865C9.61853 14.8806 8.83272 14.3423 8.34488 13.7244L6.77512 14.9636C7.56728 15.9671 8.72281 16.6874 10.1465 17.1775L10.7975 15.2865ZM8.35262 13.7343C7.88274 13.1234 7.6 12.2594 7.6 11.048H5.6C5.6 12.5672 5.95726 13.9006 6.76738 14.9537L8.35262 13.7343ZM7.6 11.048C7.6 10.1216 7.83711 9.35388 8.28619 8.70521L6.64181 7.56679C5.93889 8.58212 5.6 9.75576 5.6 11.048H7.6ZM8.28619 8.70521C8.71028 8.09264 9.43982 7.54543 10.5923 7.12288L9.90375 5.24512C8.49618 5.76123 7.36972 6.51536 6.64181 7.56679L8.28619 8.70521ZM10.5923 7.12288C11.7186 6.70988 13.2841 6.48 15.336 6.48V4.48C13.1639 4.48 11.3374 4.71946 9.90375 5.24512L10.5923 7.12288ZM15.336 6.48C17.5258 6.48 19.3772 6.58547 20.8981 6.79099L21.1659 4.80901C19.5294 4.58786 17.5835 4.48 15.336 4.48V6.48ZM20.8981 6.79099C22.4804 7.00482 23.4725 7.20777 23.9597 7.38174L24.6323 5.49826C23.9248 5.24557 22.7409 5.02184 21.1659 4.80901L20.8981 6.79099ZM23.296 6.44V7.4H25.296V6.44H23.296ZM23.3312 7.66312L24.2912 11.1831L26.2208 10.6569L25.2608 7.13688L23.3312 7.66312ZM25.7174 10.0328C25.1013 9.71245 24.2634 9.40321 23.2375 9.09761L22.6665 11.0144C23.6459 11.3061 24.344 11.5729 24.7946 11.8072L25.7174 10.0328ZM23.2375 9.09761C22.1777 8.78193 20.9658 8.52753 19.6077 8.33037L19.3203 10.3096C20.6075 10.4965 21.721 10.7327 22.6665 11.0144L23.2375 9.09761ZM19.6232 8.33276C18.2409 8.10981 16.7578 8 15.176 8V10C16.6662 10 18.0417 10.1035 19.3048 10.3072L19.6232 8.33276ZM15.176 8C14.1752 8 13.3089 8.08672 12.6312 8.30358L13.2408 10.2084C13.6298 10.0839 14.2568 10 15.176 10V8ZM12.6664 8.29304C12.0183 8.47449 11.4113 8.78369 10.9977 9.31018L12.5703 10.5458C12.626 10.475 12.787 10.3362 13.2056 10.219L12.6664 8.29304ZM10.9914 9.31829C10.6161 9.80609 10.464 10.3865 10.464 10.984H12.464C12.464 10.7282 12.5252 10.6046 12.5766 10.5377L10.9914 9.31829ZM10.464 10.984C10.464 11.7845 10.7815 12.485 11.3998 13.0002L12.6802 11.4638C12.5305 11.339 12.464 11.2075 12.464 10.984H10.464ZM11.4468 13.0371C12.0249 13.4631 12.8432 13.7445 13.7825 13.9458L14.2015 11.9902C13.3488 11.8075 12.8657 11.5983 12.6332 11.4269L11.4468 13.0371ZM13.7825 13.9458C14.7248 14.1477 15.967 14.3334 17.496 14.5057L17.72 12.5183C16.2197 12.3492 15.0512 12.1723 14.2015 11.9902L13.7825 13.9458ZM17.4986 14.506C19.788 14.758 21.474 15.1293 22.6072 15.5903L23.3608 13.7377C21.9767 13.1747 20.0787 12.778 17.7174 12.518L17.4986 14.506ZM22.6072 15.5903C23.7499 16.0551 24.3927 16.6 24.7106 17.149L26.4414 16.147C25.8206 15.0747 24.7355 14.2969 23.3608 13.7377L22.6072 15.5903ZM24.7267 17.1759C25.0995 17.7756 25.312 18.5434 25.312 19.528H27.312C27.312 18.2513 27.0339 17.0991 26.4253 16.1201L24.7267 17.1759ZM25.312 19.528C25.312 20.3853 25.154 21.0952 24.8685 21.6831L26.6675 22.5569C27.1073 21.6514 27.312 20.6333 27.312 19.528H25.312ZM24.8736 21.6728C24.6037 22.2124 24.1768 22.676 23.5506 23.0587L24.5935 24.7653C25.5032 24.2093 26.2069 23.4782 26.6624 22.5672L24.8736 21.6728ZM23.5398 23.0654C22.9284 23.4497 22.0841 23.7674 20.9673 23.9868L21.3527 25.9492C22.6252 25.6993 23.7222 25.313 24.6042 24.7586L23.5398 23.0654ZM20.9639 23.9874C19.8733 24.2055 18.545 24.32 16.968 24.32V26.32C18.6337 26.32 20.1001 26.1998 21.3561 25.9486L20.9639 23.9874ZM29.6418 24.552L28.7473 24.1048L29.6418 24.552ZM29.6418 3.368L28.7226 3.76192L28.7342 3.78893L28.7473 3.81521L29.6418 3.368ZM32.6498 2.728L32.7945 3.71746L32.8044 3.71602L32.8141 3.71439L32.6498 2.728ZM34.4098 2.28H35.4098V0.605779L33.9356 1.39953L34.4098 2.28ZM34.6018 24.552L33.6826 24.9459L33.6942 24.9729L33.7073 24.9992L34.6018 24.552ZM29.1938 26C29.6272 26 29.9412 25.7788 30.1249 25.5951C30.3065 25.4135 30.438 25.1956 30.5362 24.9992L28.7473 24.1048C28.6962 24.2071 28.6784 24.2132 28.7106 24.1809C28.745 24.1466 28.9097 24 29.1938 24V26ZM30.5362 24.9992C30.7959 24.4797 30.8658 23.7884 30.8658 23.08H28.8658C28.8658 23.7369 28.7862 24.0269 28.7473 24.1048L30.5362 24.9992ZM30.8658 23.08V4.84H28.8658V23.08H30.8658ZM30.8658 4.84C30.8658 4.13161 30.7959 3.44028 30.5362 2.92078L28.7473 3.81521C28.7862 3.89305 28.8658 4.18305 28.8658 4.84H30.8658ZM30.5609 2.97408C30.4753 2.7743 30.3544 2.54519 30.1745 2.35155C29.9875 2.15014 29.6686 1.92 29.2258 1.92V3.92C28.9323 3.92 28.7573 3.76453 28.709 3.71245C28.6678 3.66814 28.6802 3.66303 28.7226 3.76192L30.5609 2.97408ZM29.2258 3.92C30.6574 3.92 31.8524 3.85533 32.7945 3.71746L32.505 1.73854C31.6977 1.85667 30.6101 1.92 29.2258 1.92V3.92ZM32.8141 3.71439C33.2776 3.63715 33.6781 3.55717 34.0084 3.4731C34.3225 3.39316 34.6347 3.29465 34.8839 3.16047L33.9356 1.39953C33.9075 1.41468 33.7877 1.46551 33.5151 1.5349C33.2587 1.60016 32.9179 1.66952 32.4854 1.7416L32.8141 3.71439ZM33.4098 2.28V23.08H35.4098V2.28H33.4098ZM33.4098 23.08C33.4098 23.7816 33.4692 24.448 33.6826 24.9459L35.5209 24.1581C35.4783 24.0587 35.4098 23.7437 35.4098 23.08H33.4098ZM33.7073 24.9992C33.8055 25.1956 33.937 25.4135 34.1186 25.5951C34.3023 25.7788 34.6163 26 35.0498 26V24C35.3338 24 35.4985 24.1466 35.5329 24.1809C35.5651 24.2132 35.5473 24.2071 35.4962 24.1048L33.7073 24.9992ZM35.0498 24H29.1938V26H35.0498V24ZM38.5123 24.552L37.6178 24.1048L37.6178 24.1048L38.5123 24.552ZM38.5123 10.472L37.5931 10.8659L37.6047 10.8929L37.6178 10.9192L38.5123 10.472ZM43.2803 10.024H44.2803V9.024H43.2803V10.024ZM43.4723 24.552L42.5531 24.9459L42.5647 24.9729L42.5778 24.9992L43.4723 24.552ZM38.7682 6.952L38.0956 7.69194L38.0956 7.69194L38.7682 6.952ZM38.7363 3.432L38.0636 2.69206L38.055 2.69986L38.0466 2.70786L38.7363 3.432ZM42.5443 3.432L41.8546 4.15614L41.863 4.16414L41.8716 4.17194L42.5443 3.432ZM42.5443 6.952L41.8716 6.21206L41.863 6.21986L41.8546 6.22786L42.5443 6.952ZM38.0643 26C38.4977 26 38.8117 25.7788 38.9954 25.5951C39.177 25.4135 39.3085 25.1956 39.4067 24.9992L37.6178 24.1048C37.5667 24.2071 37.5489 24.2132 37.5811 24.1809C37.6155 24.1466 37.7802 24 38.0643 24V26ZM39.4067 24.9992C39.6664 24.4797 39.7363 23.7884 39.7363 23.08H37.7363C37.7363 23.7369 37.6567 24.0269 37.6178 24.1048L39.4067 24.9992ZM39.7363 23.08V11.944H37.7363V23.08H39.7363ZM39.7363 11.944C39.7363 11.2356 39.6664 10.5443 39.4067 10.0248L37.6178 10.9192C37.6567 10.9971 37.7363 11.2871 37.7363 11.944H39.7363ZM39.4314 10.0781C39.3458 9.8783 39.2249 9.64919 39.045 9.45555C38.858 9.25414 38.5391 9.024 38.0963 9.024V11.024C37.8028 11.024 37.6278 10.8685 37.5795 10.8165C37.5383 10.7721 37.5507 10.767 37.5931 10.8659L39.4314 10.0781ZM38.0963 11.024H43.2803V9.024H38.0963V11.024ZM42.2803 10.024V23.08H44.2803V10.024H42.2803ZM42.2803 23.08C42.2803 23.7816 42.3397 24.448 42.5531 24.9459L44.3914 24.1581C44.3488 24.0587 44.2803 23.7437 44.2803 23.08H42.2803ZM42.5778 24.9992C42.676 25.1956 42.8075 25.4135 42.9891 25.5951C43.1728 25.7788 43.4868 26 43.9203 26V24C44.2043 24 44.369 24.1466 44.4034 24.1809C44.4356 24.2132 44.4178 24.2071 44.3667 24.1048L42.5778 24.9992ZM43.9203 24H38.0643V26H43.9203V24ZM40.6562 6.592C40.0523 6.592 39.6841 6.43314 39.4409 6.21206L38.0956 7.69194C38.7911 8.3242 39.6816 8.592 40.6562 8.592V6.592ZM39.4409 6.21206C39.2173 6.00876 39.0643 5.71151 39.0643 5.192H37.0643C37.0643 6.16582 37.3805 7.0419 38.0956 7.69194L39.4409 6.21206ZM39.0643 5.192C39.0643 4.65804 39.2163 4.35578 39.4259 4.15614L38.0466 2.70786C37.3602 3.36155 37.0643 4.23262 37.0643 5.192H39.0643ZM39.4089 4.17194C39.6474 3.95518 40.0229 3.792 40.6562 3.792V1.792C39.6683 1.792 38.7638 2.05549 38.0636 2.69206L39.4089 4.17194ZM40.6562 3.792C41.2924 3.792 41.6446 3.95613 41.8546 4.15614L43.2339 2.70786C42.5479 2.05454 41.6415 1.792 40.6562 1.792V3.792ZM41.8716 4.17194C42.0952 4.37524 42.2483 4.67249 42.2483 5.192H44.2483C44.2483 4.21817 43.932 3.3421 43.2169 2.69206L41.8716 4.17194ZM42.2483 5.192C42.2483 5.71151 42.0952 6.00876 41.8716 6.21206L43.2169 7.69194C43.932 7.0419 44.2483 6.16582 44.2483 5.192H42.2483ZM41.8546 6.22786C41.6446 6.42787 41.2924 6.592 40.6562 6.592V8.592C41.6415 8.592 42.5479 8.32946 43.2339 7.67614L41.8546 6.22786ZM48.6383 24.296L48.0992 25.1383L48.1068 25.1431L48.6383 24.296ZM46.3663 21.512L45.4265 21.8537L45.4292 21.8612L45.432 21.8687L46.3663 21.512ZM46.3663 13.544L45.432 13.1873L45.4292 13.1948L45.4265 13.2023L46.3663 13.544ZM48.6383 10.76L49.1773 11.6023L49.1815 11.5996L48.6383 10.76ZM54.8463 9.864L54.6423 10.843L54.6501 10.8446L54.8463 9.864ZM56.2543 10.312L55.8262 11.2157L55.8541 11.229L55.8829 11.2405L56.2543 10.312ZM57.3743 10.984L56.7193 11.7397L57.2241 12.1771L57.8215 11.8784L57.3743 10.984ZM57.4383 10.952L57.8855 11.8464L58.5053 11.5365L58.4328 10.8473L57.4383 10.952ZM57.3743 10.344H56.3743V10.3965L56.3797 10.4487L57.3743 10.344ZM57.1503 3.4L56.2311 3.79392L56.2487 3.83487L56.2698 3.8741L57.1503 3.4ZM56.7343 2.92V1.92L56.5928 3.90995L56.7343 2.92ZM61.9183 2.92H62.9183V1.92H61.9183V2.92ZM62.1103 24.552L61.1911 24.9459L61.2027 24.9729L61.2158 24.9992L62.1103 24.552ZM57.3743 25H56.3743V26H57.3743V25ZM57.3743 24.584L56.3865 24.428L56.3743 24.5055V24.584H57.3743ZM57.4703 23.976L58.458 24.132L58.5901 23.2952L57.7865 23.0273L57.4703 23.976ZM57.3743 23.944L57.6905 22.9953L57.1499 22.8151L56.7193 23.1883L57.3743 23.944ZM56.2543 24.68L56.6646 25.5919L56.6832 25.5836L56.7015 25.5744L56.2543 24.68ZM54.8143 25.128L54.6181 24.1474L54.5948 24.1521L54.5717 24.1579L54.8143 25.128ZM55.4223 21.768L55.0235 20.8509L55.016 20.8542L55.0084 20.8576L55.4223 21.768ZM56.5743 20.872L55.7692 20.2788L55.7636 20.2865L56.5743 20.872ZM57.1823 19.432L56.2061 19.2151L56.203 19.2291L56.2002 19.2432L57.1823 19.432ZM57.1823 15.688L56.206 15.9049L56.2079 15.9129L57.1823 15.688ZM56.5743 14.216L55.7358 14.761L55.7423 14.7709L55.7489 14.7807L56.5743 14.216ZM55.4223 13.256L54.975 14.1504L54.999 14.1624L55.0235 14.1731L55.4223 13.256ZM51.1663 13.96L50.4263 13.2873L50.4206 13.2936L50.4151 13.2999L51.1663 13.96ZM50.6543 20.264L51.5764 19.8773L51.5764 19.8773L50.6543 20.264ZM51.8383 21.672L52.3145 20.7927L51.8383 21.672ZM53.1183 24.32C51.3233 24.32 50.0396 23.9947 49.1697 23.4489L48.1068 25.1431C49.4129 25.9626 51.1159 26.32 53.1183 26.32V24.32ZM49.1773 23.4537C48.2893 22.8854 47.6714 22.1269 47.3005 21.1553L45.432 21.8687C45.9571 23.2438 46.8539 24.3413 48.0992 25.1383L49.1773 23.4537ZM47.306 21.1703C46.9256 20.1241 46.7263 18.9198 46.7263 17.544H44.7263C44.7263 19.1122 44.9535 20.5532 45.4265 21.8537L47.306 21.1703ZM46.7263 17.544C46.7263 16.145 46.9262 14.9304 47.306 13.8857L45.4265 13.2023C44.953 14.5042 44.7263 15.9564 44.7263 17.544H46.7263ZM47.3005 13.9007C47.6714 12.9291 48.2893 12.1706 49.1773 11.6023L48.0992 9.91773C46.8539 10.7147 45.9571 11.8122 45.432 13.1873L47.3005 13.9007ZM49.1815 11.5996C50.0488 11.0383 51.3277 10.704 53.1183 10.704V8.704C51.1115 8.704 49.4037 9.07365 48.095 9.92043L49.1815 11.5996ZM53.1183 10.704C53.7043 10.704 54.2103 10.753 54.6423 10.843L55.0502 8.88502C54.4582 8.76168 53.8122 8.704 53.1183 8.704V10.704ZM54.6501 10.8446C55.1196 10.9385 55.5084 11.0652 55.8262 11.2157L56.6823 9.40826C56.1894 9.17478 55.6395 9.00285 55.0424 8.88342L54.6501 10.8446ZM55.8829 11.2405C56.2149 11.3733 56.4904 11.5413 56.7193 11.7397L58.0292 10.2283C57.6181 9.87202 57.147 9.59206 56.6256 9.38352L55.8829 11.2405ZM57.8215 11.8784L57.8855 11.8464L56.991 10.0576L56.927 10.0896L57.8215 11.8784ZM58.4328 10.8473L58.3688 10.2393L56.3797 10.4487L56.4437 11.0567L58.4328 10.8473ZM58.3743 10.344V4.84H56.3743V10.344H58.3743ZM58.3743 4.84C58.3743 4.14246 58.3077 3.44036 58.0307 2.9259L56.2698 3.8741C56.2697 3.87396 56.3018 3.93978 56.3301 4.12171C56.3571 4.29509 56.3743 4.53124 56.3743 4.84H58.3743ZM58.0694 3.00608C57.984 2.80688 57.8689 2.58908 57.7059 2.40107C57.5421 2.21202 57.2695 1.98632 56.8757 1.93005L56.5928 3.90995C56.3483 3.87501 56.2197 3.73997 56.1946 3.71093C56.1703 3.68291 56.1885 3.69446 56.2311 3.79392L58.0694 3.00608ZM56.7343 3.92H61.9183V1.92H56.7343V3.92ZM60.9183 2.92V23.08H62.9183V2.92H60.9183ZM60.9183 23.08C60.9183 23.7816 60.9777 24.448 61.1911 24.9459L63.0294 24.1581C62.9868 24.0587 62.9183 23.7437 62.9183 23.08H60.9183ZM61.2158 24.9992C61.314 25.1956 61.4455 25.4135 61.6271 25.5951C61.8108 25.7788 62.1248 26 62.5583 26V24C62.8423 24 63.007 24.1466 63.0414 24.1809C63.0736 24.2132 63.0558 24.2071 63.0047 24.1048L61.2158 24.9992ZM62.5583 24H57.3743V26H62.5583V24ZM58.3743 25V24.584H56.3743V25H58.3743ZM58.362 24.74L58.458 24.132L56.4825 23.82L56.3865 24.428L58.362 24.74ZM57.7865 23.0273L57.6905 22.9953L57.058 24.8927L57.154 24.9247L57.7865 23.0273ZM56.7193 23.1883C56.4699 23.4045 56.1682 23.605 55.807 23.7856L56.7015 25.5744C57.1936 25.3283 57.6386 25.0382 58.0292 24.6997L56.7193 23.1883ZM55.8439 23.7681C55.4958 23.9247 55.0893 24.0532 54.6181 24.1474L55.0104 26.1086C55.6059 25.9895 56.1593 25.8193 56.6646 25.5919L55.8439 23.7681ZM54.5717 24.1579C54.1513 24.263 53.6688 24.32 53.1183 24.32V26.32C53.805 26.32 54.4532 26.249 55.0568 26.0981L54.5717 24.1579ZM53.6623 23.088C54.4598 23.088 55.1984 22.9682 55.8361 22.6784L55.0084 20.8576C54.7074 20.9945 54.2727 21.088 53.6623 21.088V23.088ZM55.821 22.6851C56.4544 22.4097 56.9894 22.0051 57.3849 21.4575L55.7636 20.2865C55.6044 20.5069 55.3714 20.6997 55.0235 20.8509L55.821 22.6851ZM57.3793 21.4652C57.7766 20.9261 58.0329 20.3039 58.1643 19.6208L56.2002 19.2432C56.1183 19.6695 55.9693 20.0073 55.7692 20.2788L57.3793 21.4652ZM58.1584 19.6489C58.3045 18.9916 58.3743 18.2885 58.3743 17.544H56.3743C56.3743 18.1648 56.316 18.7204 56.2061 19.2151L58.1584 19.6489ZM58.3743 17.544C58.3743 16.8001 58.3046 16.1044 58.1566 15.4631L56.2079 15.9129C56.3159 16.3809 56.3743 16.9225 56.3743 17.544H58.3743ZM58.1584 15.4711C58.0082 14.7951 57.7618 14.1808 57.3996 13.6513L55.7489 14.7807C55.9414 15.0619 56.1003 15.4289 56.2061 15.9049L58.1584 15.4711ZM57.4127 13.671C57.0228 13.0712 56.4818 12.6262 55.821 12.3389L55.0235 14.1731C55.344 14.3124 55.571 14.5075 55.7358 14.761L57.4127 13.671ZM55.8695 12.3616C55.2222 12.0379 54.4709 11.904 53.6623 11.904V13.904C54.2616 13.904 54.6837 14.0047 54.975 14.1504L55.8695 12.3616ZM53.6623 11.904C52.3806 11.904 51.2715 12.3576 50.4263 13.2873L51.9062 14.6327C52.341 14.1544 52.8959 13.904 53.6623 13.904V11.904ZM50.4151 13.2999C49.5483 14.2862 49.2383 15.8043 49.2383 17.576H51.2383C51.2383 15.9344 51.5468 15.0418 51.9174 14.6201L50.4151 13.2999ZM49.2383 17.576C49.2383 18.7714 49.3824 19.8168 49.7321 20.6507L51.5764 19.8773C51.3715 19.3885 51.2383 18.6419 51.2383 17.576H49.2383ZM49.7321 20.6507C50.0765 21.4722 50.6065 22.1421 51.362 22.5513L52.3145 20.7927C52.046 20.6473 51.7866 20.3785 51.5764 19.8773L49.7321 20.6507ZM51.362 22.5513C52.0478 22.9228 52.8265 23.088 53.6623 23.088V21.088C53.09 21.088 52.6527 20.9759 52.3145 20.7927L51.362 22.5513ZM69.6125 24.808L69.3018 25.7585L69.3126 25.762L69.3235 25.7653L69.6125 24.808ZM66.9565 23.272L66.2383 23.9678L66.2438 23.9735L66.2494 23.9791L66.9565 23.272ZM65.5485 20.808L66.5092 20.5305L66.5092 20.5305L65.5485 20.808ZM67.1485 11.816L66.4251 11.1255L66.4251 11.1255L67.1485 11.816ZM77.2605 10.376L76.8525 11.289L76.8597 11.2922L77.2605 10.376ZM80.6845 14.664L79.7057 14.8689L79.7085 14.8823L79.7117 14.8956L80.6845 14.664ZM80.1085 18.696L79.962 19.6852L79.9819 19.6882L80.002 19.6903L80.1085 18.696ZM69.7405 18.568V17.568H68.7405V18.568H69.7405ZM70.7965 21.224L70.1495 21.9865L70.1619 21.997L70.1746 22.0071L70.7965 21.224ZM77.9645 21.608L78.2519 22.5659L78.2638 22.5621L77.9645 21.608ZM80.3325 20.648H81.3325V18.8686L79.8126 19.7938L80.3325 20.648ZM80.3325 21.608H79.3325V21.6735L79.341 21.7385L80.3325 21.608ZM80.6525 24.04L81.2172 24.8653L81.7241 24.5185L81.644 23.9095L80.6525 24.04ZM78.3165 24.904L78.5506 25.8762L78.559 25.8742L78.5675 25.872L78.3165 24.904ZM76.4605 15.816V16.816H77.4605V15.816H76.4605ZM76.1405 14.44L75.2214 14.8339L75.2291 14.8521L75.2376 14.8699L76.1405 14.44ZM75.1805 13.352L74.6258 14.184L74.6398 14.1934L74.6541 14.2023L75.1805 13.352ZM71.4045 13.256L70.973 12.3539L70.9651 12.3576L70.9573 12.3616L71.4045 13.256ZM70.3485 14.12L69.5245 13.5535L69.5121 13.5715L69.5005 13.59L70.3485 14.12ZM70.2205 15.656L70.8607 14.8878L70.8607 14.8878L70.2205 15.656ZM73.8365 24.32C72.211 24.32 70.9079 24.1545 69.9015 23.8507L69.3235 25.7653C70.5784 26.1442 72.0913 26.32 73.8365 26.32V24.32ZM69.9232 23.8575C68.9271 23.5318 68.1896 23.0909 67.6636 22.5649L66.2494 23.9791C67.046 24.7757 68.0793 25.3588 69.3018 25.7585L69.9232 23.8575ZM67.6747 22.5762C67.1331 22.0171 66.7436 21.3416 66.5092 20.5305L64.5878 21.0855C64.9081 22.1944 65.4572 23.1616 66.2383 23.9678L67.6747 22.5762ZM66.5092 20.5305C66.2629 19.6777 66.1325 18.6857 66.1325 17.544H64.1325C64.1325 18.8343 64.2795 20.0183 64.5878 21.0855L66.5092 20.5305ZM66.1325 17.544C66.1325 15.326 66.7455 13.6865 67.8719 12.5065L66.4251 11.1255C64.8635 12.7615 64.1325 14.9407 64.1325 17.544H66.1325ZM67.8719 12.5065C68.9589 11.3677 70.7066 10.704 73.3245 10.704V8.704C70.3958 8.704 68.0261 9.44828 66.4251 11.1255L67.8719 12.5065ZM73.3245 10.704C74.8665 10.704 76.0244 10.919 76.8526 11.289L77.6684 9.46299C76.4913 8.93704 75.0252 8.704 73.3245 8.704V10.704ZM76.8597 11.2922C77.7544 11.6836 78.375 12.1784 78.7828 12.7492L80.4102 11.5868C79.7513 10.6642 78.8146 9.96441 77.6613 9.45984L76.8597 11.2922ZM78.7828 12.7492C79.2339 13.3808 79.5415 14.0841 79.7057 14.8689L81.6633 14.4591C81.4435 13.4092 81.0258 12.4486 80.4102 11.5868L78.7828 12.7492ZM79.7117 14.8956C79.907 15.716 80.0045 16.545 80.0045 17.384H82.0045C82.0045 16.3883 81.8886 15.404 81.6573 14.4324L79.7117 14.8956ZM80.0045 17.384V18.888H82.0045V17.384H80.0045ZM82.0045 18.888C82.0045 18.461 81.753 18.2005 81.6413 18.1047C81.5212 18.0018 81.402 17.9464 81.3424 17.9209C81.2147 17.8661 81.0831 17.8341 80.99 17.8142C80.7881 17.7709 80.522 17.7346 80.215 17.7017L80.002 19.6903C80.2923 19.7214 80.4743 19.7491 80.571 19.7698C80.6273 19.7819 80.6076 19.7819 80.5546 19.7591C80.5324 19.7496 80.4412 19.7102 80.3397 19.6233C80.2467 19.5435 80.0045 19.299 80.0045 18.888H82.0045ZM80.255 17.7068C79.5989 17.6096 78.5518 17.568 77.1645 17.568V19.568C78.5506 19.568 79.4661 19.6117 79.962 19.6852L80.255 17.7068ZM77.1645 17.568H69.7405V19.568H77.1645V17.568ZM68.7405 18.568C68.7405 19.9492 69.1635 21.1499 70.1495 21.9865L71.4435 20.4615C71.0215 20.1034 70.7405 19.5335 70.7405 18.568H68.7405ZM70.1746 22.0071C71.1673 22.7954 72.6213 23.088 74.3165 23.088V21.088C72.769 21.088 71.8764 20.8046 71.4184 20.4409L70.1746 22.0071ZM74.3165 23.088C75.7581 23.088 77.0737 22.9193 78.2518 22.5658L77.6772 20.6502C76.722 20.9367 75.6056 21.088 74.3165 21.088V23.088ZM78.2638 22.5621C79.3691 22.2154 80.254 21.8665 80.8524 21.5022L79.8126 19.7938C79.4296 20.0269 78.7359 20.3179 77.6652 20.6539L78.2638 22.5621ZM79.3325 20.648V21.608H81.3325V20.648H79.3325ZM79.341 21.7385L79.661 24.1705L81.644 23.9095L81.324 21.4775L79.341 21.7385ZM80.0878 23.2147C79.8422 23.3827 79.2203 23.6366 78.0655 23.936L78.5675 25.872C79.7167 25.574 80.6521 25.2519 81.2172 24.8653L80.0878 23.2147ZM78.0824 23.9318C77.0368 24.1835 75.6303 24.32 73.8365 24.32V26.32C75.712 26.32 77.2922 26.1792 78.5506 25.8762L78.0824 23.9318ZM70.9245 16.816H76.4605V14.816H70.9245V16.816ZM77.4605 15.816C77.4605 15.1894 77.3169 14.5845 77.0434 14.0101L75.2376 14.8699C75.3908 15.1915 75.4605 15.5039 75.4605 15.816H77.4605ZM77.0596 14.0461C76.7801 13.3937 76.3147 12.878 75.7069 12.5017L74.6541 14.2023C74.9423 14.3807 75.1169 14.5903 75.2214 14.8339L77.0596 14.0461ZM75.7352 12.5199C75.063 12.0718 74.2242 11.904 73.3245 11.904V13.904C74.0035 13.904 74.402 14.0349 74.6258 14.184L75.7352 12.5199ZM73.3245 11.904C72.4481 11.904 71.6451 12.0324 70.973 12.3539L71.836 14.1581C72.1452 14.0102 72.6222 13.904 73.3245 13.904V11.904ZM70.9573 12.3616C70.3762 12.6521 69.8773 13.0403 69.5245 13.5535L71.1725 14.6865C71.2891 14.517 71.4941 14.3292 71.8517 14.1504L70.9573 12.3616ZM69.5005 13.59C69.1991 14.0722 69.0285 14.6057 69.0285 15.176H71.0285C71.0285 15.0209 71.0712 14.8504 71.1965 14.65L69.5005 13.59ZM69.0285 15.176C69.0285 15.5963 69.1633 16.0767 69.5803 16.4242L70.8607 14.8878C70.9287 14.9445 70.9775 15.0159 71.005 15.0846C71.03 15.1472 71.0285 15.1847 71.0285 15.176H69.0285ZM69.5803 16.4242C69.9996 16.7736 70.5545 16.816 70.9245 16.816V14.816C70.8646 14.816 70.8172 14.8136 70.7807 14.8103C70.7439 14.8068 70.7227 14.8028 70.7141 14.8009C70.7052 14.7988 70.716 14.8004 70.7401 14.8111C70.7645 14.8218 70.809 14.8447 70.8607 14.8878L69.5803 16.4242ZM84.3135 24.584L83.4191 24.1368L83.4121 24.1508L83.4055 24.1649L84.3135 24.584ZM84.3135 6.248L83.3944 6.64192L83.4059 6.66893L83.4191 6.69521L84.3135 6.248ZM89.6255 6.248L90.506 6.7221L90.5132 6.70876L90.5199 6.69521L89.6255 6.248ZM83.8975 26C84.3127 26 84.6247 25.799 84.8206 25.6031C85.0065 25.4172 85.1325 25.1959 85.2215 25.0031L83.4055 24.1649C83.3665 24.2495 83.3592 24.2361 83.4064 24.1889C83.4636 24.1317 83.6316 24 83.8975 24V26ZM85.2079 25.0312C85.4689 24.5092 85.5375 23.8039 85.5375 23.08H83.5375C83.5375 23.7641 83.4567 24.0615 83.4191 24.1368L85.2079 25.0312ZM85.5375 23.08V7.72H83.5375V23.08H85.5375ZM85.5375 7.72C85.5375 7.01161 85.4677 6.32028 85.2079 5.80079L83.4191 6.69521C83.458 6.77305 83.5375 7.06305 83.5375 7.72H85.5375ZM85.2326 5.85408C85.147 5.6543 85.0261 5.42519 84.8463 5.23155C84.6593 5.03014 84.3403 4.8 83.8975 4.8V6.8C83.604 6.8 83.4291 6.64453 83.3807 6.59245C83.3396 6.54814 83.352 6.54303 83.3944 6.64192L85.2326 5.85408ZM83.8975 6.8H90.0735V4.8H83.8975V6.8ZM90.0735 4.8C89.6401 4.8 89.3261 5.02123 89.1424 5.20489C88.9608 5.38651 88.8293 5.60439 88.7311 5.80079L90.5199 6.69521C90.5711 6.59294 90.5889 6.58682 90.5566 6.61911C90.5223 6.65344 90.3576 6.8 90.0735 6.8V4.8ZM88.745 5.7739C88.4654 6.29318 88.4015 7.02402 88.4015 7.752H90.4015C90.4015 7.41953 90.4189 7.16539 90.4466 6.97931C90.476 6.78207 90.5092 6.71601 90.506 6.7221L88.745 5.7739ZM88.4015 7.752V23.08H90.4015V7.752H88.4015ZM88.4015 23.08C88.4015 23.7884 88.4713 24.4797 88.7311 24.9992L90.5199 24.1048C90.481 24.0269 90.4015 23.7369 90.4015 23.08H88.4015ZM88.7311 24.9992C88.8293 25.1956 88.9608 25.4135 89.1424 25.5951C89.3261 25.7788 89.6401 26 90.0735 26V24C90.3576 24 90.5223 24.1466 90.5566 24.1809C90.5889 24.2132 90.5711 24.2071 90.5199 24.1048L88.7311 24.9992ZM90.0735 24H83.8975V26H90.0735V24ZM93.4965 24.552L92.6021 24.1048L92.5889 24.1311L92.5774 24.1581L93.4965 24.552ZM93.4965 10.824L92.5774 11.2179L92.5949 11.2589L92.616 11.2981L93.4965 10.824ZM93.0805 10.344V9.344L92.9391 11.3339L93.0805 10.344ZM95.9605 10.152L96.0898 11.1436L96.1004 11.1422L96.1109 11.1406L95.9605 10.152ZM98.2645 9.704H99.2645V8.39916L98.0045 8.73838L98.2645 9.704ZM98.2645 11.656L99.2529 11.8081L99.2645 11.7325V11.656H98.2645ZM98.2005 12.072L97.2121 11.9199L97.1351 12.4208L97.4934 12.7791L98.2005 12.072ZM98.2645 12.136L97.5574 12.8431L98.6018 13.8875L99.1836 12.5299L98.2645 12.136ZM100.345 10.248L100.815 11.1304L100.826 11.1243L100.838 11.118L100.345 10.248ZM107.257 11.4L106.522 12.0789L106.529 12.0862L107.257 11.4ZM109.049 24.552L108.129 24.9459L108.141 24.9729L108.154 24.9992L109.049 24.552ZM104.089 24.552L103.194 24.1048L103.181 24.1311L103.169 24.1581L104.089 24.552ZM103.993 14.472L103.055 14.8193L103.059 14.831L103.993 14.472ZM103.097 13.256L102.553 14.0956L102.564 14.1026L102.575 14.1093L103.097 13.256ZM100.089 13.352L100.55 14.2392L100.556 14.2359L100.563 14.2325L100.089 13.352ZM98.7765 14.696L99.6447 15.1921L99.6485 15.1856L99.6521 15.1791L98.7765 14.696ZM98.4565 24.552L97.5374 24.9459L97.5489 24.9729L97.5621 24.9992L98.4565 24.552ZM93.0805 26C93.5233 26 93.8423 25.7699 94.0293 25.5685C94.2091 25.3748 94.33 25.1457 94.4156 24.9459L92.5774 24.1581C92.535 24.257 92.5226 24.2519 92.5637 24.2075C92.6121 24.1555 92.787 24 93.0805 24V26ZM94.3909 24.9992C94.6507 24.4797 94.7205 23.7884 94.7205 23.08H92.7205C92.7205 23.7369 92.641 24.0269 92.6021 24.1048L94.3909 24.9992ZM94.7205 23.08V12.264H92.7205V23.08H94.7205ZM94.7205 12.264C94.7205 11.5665 94.654 10.8644 94.377 10.3499L92.616 11.2981C92.616 11.298 92.6481 11.3638 92.6764 11.5457C92.7034 11.7191 92.7205 11.9552 92.7205 12.264H94.7205ZM94.4156 10.4301C94.3303 10.2309 94.2151 10.0131 94.0522 9.82507C93.8883 9.63602 93.6158 9.41032 93.2219 9.35405L92.9391 11.3339C92.6945 11.299 92.566 11.164 92.5408 11.1349C92.5165 11.1069 92.5347 11.1185 92.5774 11.2179L94.4156 10.4301ZM93.0805 11.344C94.0647 11.344 95.0679 11.2769 96.0898 11.1436L95.8312 9.1604C94.8904 9.28311 93.9737 9.344 93.0805 9.344V11.344ZM96.1109 11.1406C97.1068 10.9891 97.917 10.8332 98.5245 10.6696L98.0045 8.73838C97.5026 8.87351 96.7769 9.01626 95.8101 9.16338L96.1109 11.1406ZM97.2645 9.704V11.656H99.2645V9.704H97.2645ZM97.2761 11.5039L97.2121 11.9199L99.1889 12.2241L99.2529 11.8081L97.2761 11.5039ZM97.4934 12.7791L97.5574 12.8431L98.9716 11.4289L98.9076 11.3649L97.4934 12.7791ZM99.1836 12.5299C99.1699 12.5621 99.1632 12.5685 99.1804 12.5417C99.1953 12.5183 99.2209 12.4815 99.2607 12.4291C99.3407 12.3238 99.4583 12.1822 99.6199 12.0004L98.1251 10.6716C97.9454 10.8738 97.791 11.0575 97.6683 11.2189C97.5582 11.3638 97.4282 11.5487 97.3454 11.7421L99.1836 12.5299ZM99.6199 12.0004C99.8575 11.7331 100.24 11.4371 100.815 11.1304L99.8739 9.36565C99.1691 9.74156 98.5702 10.1709 98.1251 10.6716L99.6199 12.0004ZM100.838 11.118C101.291 10.861 101.9 10.704 102.713 10.704V8.704C101.648 8.704 100.678 8.90971 99.8515 9.37798L100.838 11.118ZM102.713 10.704C104.503 10.704 105.717 11.208 106.522 12.0789L107.991 10.7211C106.705 9.33063 104.89 8.704 102.713 8.704V10.704ZM106.529 12.0862C107.346 12.9517 107.857 14.4206 107.857 16.712H109.857C109.857 14.182 109.301 12.1096 107.984 10.7138L106.529 12.0862ZM107.857 16.712V23.08H109.857V16.712H107.857ZM107.857 23.08C107.857 23.7816 107.916 24.448 108.129 24.9459L109.968 24.1581C109.925 24.0587 109.857 23.7437 109.857 23.08H107.857ZM108.154 24.9992C108.252 25.1956 108.384 25.4135 108.565 25.5951C108.749 25.7788 109.063 26 109.497 26V24C109.781 24 109.945 24.1466 109.98 24.1809C110.012 24.2132 109.994 24.2071 109.943 24.1048L108.154 24.9992ZM109.497 24H103.673V26H109.497V24ZM103.673 26C104.115 26 104.434 25.7699 104.621 25.5685C104.801 25.3748 104.922 25.1457 105.008 24.9459L103.169 24.1581C103.127 24.257 103.115 24.2519 103.156 24.2075C103.204 24.1555 103.379 24 103.673 24V26ZM104.983 24.9992C105.243 24.4797 105.313 23.7884 105.313 23.08H103.313C103.313 23.7369 103.233 24.0269 103.194 24.1048L104.983 24.9992ZM105.313 23.08V16.808H103.313V23.08H105.313ZM105.313 16.808C105.313 15.7551 105.203 14.8346 104.926 14.113L103.059 14.831C103.208 15.2187 103.313 15.8555 103.313 16.808H105.313ZM104.93 14.1247C104.667 13.4142 104.253 12.7908 103.618 12.4027L102.575 14.1093C102.708 14.1905 102.891 14.3778 103.055 14.8193L104.93 14.1247ZM103.64 12.4164C103.094 12.0633 102.473 11.904 101.817 11.904V13.904C102.141 13.904 102.374 13.9794 102.553 14.0956L103.64 12.4164ZM101.817 11.904C101.045 11.904 100.307 12.0988 99.6144 12.4715L100.563 14.2325C100.98 14.0078 101.394 13.904 101.817 13.904V11.904ZM99.6271 12.4648C98.89 12.8481 98.3204 13.4526 97.9009 14.2129L99.6521 15.1791C99.9152 14.7021 100.22 14.4106 100.55 14.2392L99.6271 12.4648ZM97.9083 14.1999C97.4499 15.0019 97.2645 15.9937 97.2645 17.096H99.2645C99.2645 16.1929 99.4204 15.5847 99.6447 15.1921L97.9083 14.1999ZM97.2645 17.096V23.08H99.2645V17.096H97.2645ZM97.2645 23.08C97.2645 23.7816 97.3239 24.448 97.5374 24.9459L99.3756 24.1581C99.3331 24.0587 99.2645 23.7437 99.2645 23.08H97.2645ZM97.5621 24.9992C97.6603 25.1956 97.7918 25.4135 97.9734 25.5951C98.1571 25.7788 98.4711 26 98.9045 26V24C99.1886 24 99.3533 24.1466 99.3876 24.1809C99.4199 24.2132 99.4021 24.2071 99.3509 24.1048L97.5621 24.9992ZM98.9045 24H93.0805V26H98.9045V24Z" fill="black" mask="url(#path-1-outside-1_1_3)"/>
</g>
<defs>
<filter id="filter0_d_1_3" x="0.875542" y="0.605778" width="113.12" height="33.7142" filterUnits="userSpaceOnUse" color-interpolation-filters="sRGB">
<feFlood flood-opacity="0" result="BackgroundImageFix"/>
<feColorMatrix in="SourceAlpha" type="matrix" values="0 0 0 0 0 0 0 0 0 0 0 0 0 0 0 0 0 0 127 0" result="hardAlpha"/>
<feOffset dy="4"/>
<feGaussianBlur stdDeviation="2"/>
<feComposite in2="hardAlpha" operator="out"/>
<feColorMatrix type="matrix" values="0 0 0 0 0 0 0 0 0 0 0 0 0 0 0 0 0 0 0.25 0"/>
<feBlend mode="normal" in2="BackgroundImageFix" result="effect1_dropShadow_1_3"/>
<feBlend mode="normal" in="SourceGraphic" in2="effect1_dropShadow_1_3" result="shape"/>
</filter>
</defs>
</svg>
